<?xml version="1.0" encoding="UTF-8" standalone="no"?>
<!-- Created with Inkscape (http://www.inkscape.org/) -->
<svg xmlns:inkscape="http://www.inkscape.org/namespaces/inkscape" xmlns:rdf="http://www.w3.org/1999/02/22-rdf-syntax-ns#" xmlns="http://www.w3.org/2000/svg" xmlns:sodipodi="http://sodipodi.sourceforge.net/DTD/sodipodi-0.dtd" xmlns:ns1="http://sozi.baierouge.fr" xmlns:cc="http://creativecommons.org/ns#" xmlns:xlink="http://www.w3.org/1999/xlink" xmlns:dc="http://purl.org/dc/elements/1.1/" id="svg2" sodipodi:docname="number-7.svg" inkscape:export-filename="number-7.png" viewBox="0 0 450 450" inkscape:export-xdpi="90" version="1.1" inkscape:export-ydpi="90" inkscape:version="0.48.4 r9939">
  <defs id="defs4">
    <filter id="filter4097" height="2.392" width="1.3258" y="-.696" x="-.16289" inkscape:collect="always">
      <feGaussianBlur id="feGaussianBlur4099" stdDeviation="6.38" inkscape:collect="always"/>
    </filter>
    <linearGradient id="linearGradient3984" y2="710.37" gradientUnits="userSpaceOnUse" x2="238" gradientTransform="matrix(1.0913 0 0 1.0913 -19.265 -72.905)" y1="651.36" x1="238" inkscape:collect="always">
      <stop id="stop3980" style="stop-color:#ffffff" offset="0"/>
      <stop id="stop3982" style="stop-color:#ffffff;stop-opacity:0" offset="1"/>
    </linearGradient>
    <linearGradient id="linearGradient3992" y2="881.33" gradientUnits="userSpaceOnUse" x2="173" gradientTransform="matrix(1.0913 0 0 1.0913 -19.265 -72.905)" y1="938.36" x1="173" inkscape:collect="always">
      <stop id="stop3988" style="stop-color:#fa71ff" offset="0"/>
      <stop id="stop3990" style="stop-color:#fa71ff;stop-opacity:0" offset="1"/>
    </linearGradient>
    <linearGradient id="linearGradient4014" y2="286.5" gradientUnits="userSpaceOnUse" x2="172" gradientTransform="matrix(1.0913 0 0 1.0913 -19.265 584.46)" y1="47.746" x1="172" inkscape:collect="always">
      <stop id="stop4010" style="stop-color:#fa71ff" offset="0"/>
      <stop id="stop4012" style="stop-color:#fa71ff;stop-opacity:0" offset="1"/>
    </linearGradient>
    <linearGradient id="linearGradient4016" y2="935.36" gradientUnits="userSpaceOnUse" x2="268" gradientTransform="matrix(1.0913 0 0 1.0913 -19.265 -72.905)" y1="687.36" x1="259" inkscape:collect="always">
      <stop id="stop3961" style="stop-color:#800080" offset="0"/>
      <stop id="stop3963" style="stop-color:#ff00ff" offset="1"/>
    </linearGradient>
  </defs>
  <sodipodi:namedview id="base" bordercolor="#666666" inkscape:pageshadow="2" inkscape:window-y="-9" pagecolor="#ffffff" inkscape:window-height="963" inkscape:window-maximized="1" inkscape:zoom="1" inkscape:window-x="-9" showgrid="false" borderopacity="1.0" inkscape:current-layer="layer1" inkscape:cx="101.5977" inkscape:cy="200.24072" inkscape:window-width="1280" inkscape:pageopacity="0.0" inkscape:document-units="px"/>
  <g id="layer1" inkscape:label="Layer 1" inkscape:groupmode="layer" transform="translate(0 -602.36)">
    <path id="path4095" sodipodi:rx="47" sodipodi:ry="11" style="opacity:0.44;color:#000000;filter:url(#filter4097);fill:#ff00ff" sodipodi:type="arc" d="m275 428a47 11 0 1 1 -94 0 47 11 0 1 1 94 0z" transform="translate(-19 591.36)" sodipodi:cy="428" sodipodi:cx="228"/>
    <g id="text3947" style="fill:#000000;stroke:#000000;stroke-width:8.7304" transform="matrix(1.0954 -.29812 .18114 .86364 0 0)">
      <path id="path4019" style="" d="m110.45 922.94c4.6761 2.8663 8.8244 6.1096 12.445 9.7298 22.024 20.516 33.036 46.914 33.036 79.196-0.00027 32.131-11.05 58.454-33.149 78.97-22.1 20.516-50.497 30.773-85.192 30.773s-63.093-10.258-85.192-30.773-33.149-46.839-33.149-78.97c-0.000033-32.282 11.087-58.68 33.262-79.196 3.7712-3.6202 7.7687-6.8634 11.993-9.7298l-6.1094-4.978c-20.516-17.8-30.773-40.729-30.773-68.787-0.00004-28.058 10.258-51.024 30.773-68.9 20.515-17.875 46.914-26.813 79.196-26.813 32.282 0.00036 58.68 8.9382 79.196 26.813 20.515 17.876 30.773 40.843 30.773 68.9-0.00026 28.058-10.258 50.987-30.773 68.787zm-72.86-25.57c15.085 0.00022 27.04-3.771 35.864-11.314 8.8245-7.5422 13.237-17.725 13.237-30.547-0.000199-12.973-4.4125-23.23-13.237-30.773-8.8249-7.5422-20.78-11.313-35.864-11.314-15.085 0.0003-27.04 3.7715-35.864 11.314-8.8248 7.5427-13.237 17.8-13.237 30.773-0.000102 12.822 4.4499 23.005 13.35 30.547 8.7491 7.5427 20.666 11.314 35.751 11.314zm0 58.379c-15.99 0.00016-28.661 4.7896-38.014 14.368-9.3528 9.5791-14.029 22.514-14.029 38.806-0.000099 16.141 4.6762 28.963 14.029 38.466 9.3525 9.5036 22.024 14.255 38.014 14.255s28.661-4.7517 38.014-14.255c9.3525-9.5034 14.029-22.326 14.029-38.466-0.000202-16.292-4.6765-29.265-14.029-38.919-9.3528-9.5033-22.024-14.255-38.014-14.255z"/>
    </g>
    <path id="text3951" style="fill:#ffffff" inkscape:connector-curvature="0" d="m172.66 639.01c-37.355 10.082-73.363 32.574-90.242 63.011-16.127 29.285-10.613 62.923 11.825 83.49 9.5057 8.518 22.325 14.025 35.862 17.918-25.369 22.132-39.969 52.662-36.62 80.169 2.0388 27.558 17.721 53.097 46.113 65.446 30.419 14.507 71.229 13.112 108.05 1.5681 39.199-10.954 75.76-35.8 92.971-67.518 17.089-30.997 12.978-65.423-5.5407-90.431-11.888-15.208-30.878-26.322-53.224-30.472 21.41-19.381 33.51-45.033 30.144-68.532-2.1737-24.576-18.423-46.297-44.922-55.563-27.671-10.783-62.391-8.4888-94.416 0.9137zm11.713 47.561c21.058-6.5776 46.616-6.1679 58.698 7.8112 12.091 13.997 10.665 37.302-7.8413 51.855-16.28 13.093-38.91 19.609-59.37 19.863-28.929 0.96188-45.79-23.605-36.496-46.358 6.4479-16.485 25.973-28.037 45.009-33.172zm27.347 122.48c22.085-6.7194 46.808-3.7367 59.043 10.395 13.201 15.628 16.637 39.488 2.366 59.103-14.584 19.852-44.559 30.071-69.372 29.03-22.93-1.1119-38.592-16.532-41.405-34.561-4.6664-17.64 3.1115-39.633 23.214-52.552 7.8735-5.2429 16.91-8.9121 26.156-11.415z"/>
    <path id="path3957" d="m178.12 640.1c-37.355 10.082-73.363 32.574-90.242 63.011-16.127 29.285-10.613 62.923 11.825 83.49 9.5057 8.518 22.325 14.025 35.862 17.918-25.369 22.132-39.969 52.662-36.62 80.169 2.0388 27.558 17.721 53.097 46.113 65.446 30.419 14.507 71.229 13.112 108.05 1.5681 39.199-10.954 75.76-35.8 92.971-67.518 17.089-30.997 12.978-65.423-5.5407-90.431-11.888-15.208-30.878-26.322-53.224-30.472 21.41-19.381 33.51-45.033 30.144-68.532-2.1737-24.576-18.423-46.297-44.922-55.563-27.671-10.783-62.391-8.4888-94.416 0.91371zm11.713 47.561c21.058-6.5776 46.616-6.1679 58.698 7.8112 12.091 13.997 10.665 37.302-7.8413 51.855-16.28 13.093-38.91 19.609-59.37 19.863-28.929 0.96187-45.79-23.605-36.496-46.358 6.4479-16.485 25.973-28.037 45.009-33.172zm27.347 122.48c22.085-6.7194 46.808-3.7367 59.043 10.395 13.201 15.628 16.637 39.488 2.366 59.103-14.584 19.852-44.559 30.071-69.372 29.03-22.93-1.1119-38.592-16.532-41.405-34.561-4.6664-17.64 3.1115-39.633 23.214-52.552 7.8735-5.2429 16.91-8.9121 26.156-11.415z" style="fill:url(#linearGradient4016)" inkscape:connector-curvature="0"/>
    <path id="path3976" style="fill:url(#linearGradient3984)" inkscape:connector-curvature="0" d="m230.06 630.94c-17.187 0.0884-35.086 3.0883-52.212 8.1166-17.354 4.6839-34.399 12.058-49.416 21.621 26.28-6.8073 55.772-9.2717 86.929-6.3773 36.814 3.4199 71.299 13.883 100.91 29.261-5.3104-20.273-20.565-37.448-43.379-45.426-13.057-5.088-27.669-7.2738-42.834-7.1958z"/>
    <path id="path3967" style="fill:url(#linearGradient3992)" inkscape:connector-curvature="0" d="m103.71 909.43c7.1492 17.843 20.861 33.046 40.856 41.742 30.621 14.603 71.69 13.189 108.76 1.5688 9.2653-2.5892 18.391-5.9525 27.146-9.9922-20.41 3.2175-42.304 3.9596-65.103 1.8416-41.361-3.8423-79.78-16.55-111.65-35.16z"/>
    <path id="path3994" style="opacity:0.88;color:#000000;fill:url(#linearGradient4014)" inkscape:connector-curvature="0" d="m113.36 672.99c-2.6482 2.2268-5.1879 4.5687-7.605 6.9571 1.0681 0.0875 2.1416 0.17866 3.2057 0.27283 21.304 3.7548 41.447 9.0983 60.022 15.824 6.5429-3.6343 13.723-6.4705 20.837-8.3894 4.8435-1.5129 9.9387-2.6145 15.04-3.308-28.305-6.5428-59.148-10.538-91.499-11.356zm137.03 24.861c4.8276 6.8172 6.7943 15.378 5.5929 23.94 16.338 9.0932 30.459 19.347 41.913 30.522 5.9684-7.1307 10.769-14.8 14.187-22.679-17.266-12.303-38.099-23.045-61.693-31.784zm4.4675 29.158c-1.3967 4.7172-3.7718 9.3516-7.2299 13.573 27.527 24.122 43.618 53.197 43.618 84.508 0 8.4621-1.2122 16.746-3.4785 24.827 0.11454 2.7748-0.011 5.5828-0.40924 8.3894 10.963-15.396 16.983-32.1 16.983-49.586 0-15.662-4.8281-30.708-13.71-44.743-1.1022-0.24254-2.1885-0.47412-3.308-0.68206 0.60322-0.54605 1.1851-1.1152 1.7734-1.6711-8.3645-12.473-19.967-24.112-34.24-34.615zm60.431 45.971c10.196 15.244 15.756 31.688 15.756 48.836 0 61.217-70.82 113.51-170.55 134.13 0.2256 0.0644 0.45573 0.10746 0.68206 0.17052 93.881-11.839 168.63-50.657 194.76-100.54 3.4383-22.28-2.4798-44.361-15.415-61.829-6.4964-8.3103-15.11-15.372-25.236-20.769z"/>
  </g>
  <metadata>
    <rdf:RDF>
      <cc:Work>
        <dc:format>image/svg+xml</dc:format>
        <dc:type rdf:resource="http://purl.org/dc/dcmitype/StillImage"/>
        <cc:license rdf:resource="http://creativecommons.org/licenses/publicdomain/"/>
        <dc:publisher>
          <cc:Agent rdf:about="http://openclipart.org/">
            <dc:title>Openclipart</dc:title>
          </cc:Agent>
        </dc:publisher>
      </cc:Work>
      <cc:License rdf:about="http://creativecommons.org/licenses/publicdomain/">
        <cc:permits rdf:resource="http://creativecommons.org/ns#Reproduction"/>
        <cc:permits rdf:resource="http://creativecommons.org/ns#Distribution"/>
        <cc:permits rdf:resource="http://creativecommons.org/ns#DerivativeWorks"/>
      </cc:License>
    </rdf:RDF>
  </metadata>
</svg>
