<svg width="1600" height="1200" xmlns="http://www.w3.org/2000/svg">
 <title>bomb</title>
 <defs>
  <filter color-interpolation-filters="sRGB" id="imagebot_6">
   <feGaussianBlur stdDeviation="3.42208" id="imagebot_44"/>
  </filter>
 </defs>
 <g id="imagebot_2">
  <title>imagebot_2</title>
  <metadata>image/svg+xmlOpenclipartCartoon bomb2013-09-22T06:13:15Red cartoon bombhttps://openclipart.org/detail/183653/cartoon-bomb-by-purzen-183653purzenbombcartooncherryexplosivefusegamepurpleredshinyweapon</metadata>
  <g transform="translate(-6, -34) matrix(5.30473, 0, 0, 5.30473, -507.645, -648.95)" id="imagebot_89">
   <path transform="matrix(0.769983, 0, 0, 0.769983, -100.113, -3.38223)" stroke-width="9.1244" stroke="#000" fill-rule="evenodd" d="M533.08,235.77 L526.793,237.566 C526.707,237.559 526.484,237.57 526.348,237.566 C520.502,237.392 514.591,237.959 508.61,239.363 C496.792,242.135 485.486,248.843 475.827,260.02 C464.331,255.547 453.492,256.266 449.781,262.49 L446.188,268.552 C409.302,260.949 370.014,276.817 349.639,310.989 C323.904,354.148 338.139,409.871 381.298,435.609 C424.457,461.343 480.18,447.334 505.918,404.174 C526.309,369.975 521.663,327.93 497.385,299.094 L500.978,293.032 C504.363,287.36 500.891,278.589 493.119,271.027 C499.396,264.38 506.003,260.793 513.103,259.128 C517.215,258.163 521.643,257.98 526.125,258.229 L532.862,261.373 L533.984,256.433 L537.801,253.963 L533.76,247.901 L538.699,241.389 L533.535,240.491 L533.09,235.776 L533.08,235.77 z" id="imagebot_84"/>
   <path fill="#302d2e" stroke-width="1.0103" stroke="#000" fill-rule="evenodd" d="M289.517,307.828 A70.0584,70.0584 30.806 1,1 169.173,236.071 A70.0584,70.0584 30.806 1,1 289.517,307.828 z" id="imagebot_83"/>
   <path transform="matrix(0.769983, 0, 0, 0.769983, -100.113, -3.38223)" fill="#333031" stroke-width="4.5553" stroke="#000" fill-rule="evenodd" d="M483.68,263.83 C469.549,255.404 454.401,254.883 449.846,262.522 L440.953,277.365 C436.395,285.001 444.131,297.962 458.263,306.388 C472.395,314.814 487.592,315.529 492.146,307.889 L501.039,293.046 C505.597,285.409 497.813,272.256 483.681,263.83 L483.68,263.83 z" id="imagebot_82"/>
   <path transform="matrix(0.769983, 0, 0, 0.769983, -100.113, -3.38223)" d="M451.26,259.99 L443.178,273.687 C442.43,273.716 441.623,273.57 440.924,273.658 C436.327,274.221 432.768,275.975 430.846,278.871 C425.715,286.593 434.482,299.766 450.443,308.318 C464.405,315.8 479.256,317.272 486.178,312.343 C482.525,313.533 477.699,313.357 472.512,312.151 C472.512,312.108 472.44,312.052 472.512,312.001 L481.494,294.512 C478.903,293.826 476.193,292.796 473.504,291.581 L465.368,308.941 L455.147,304.287 L463.999,286.092 C452.844,277.807 447.229,266.749 451.26,259.984 L451.26,259.99 z M378.023,287.143 C368.464,293.895 360.078,302.735 353.697,313.434 C329.299,354.358 342.677,407.261 383.6,431.664 C407.575,445.959 435.68,447.111 459.754,437.526 C445.607,435.822 431.548,431.327 418.52,423.559 C371.19,395.338 354.218,335.769 378.023,287.139 z" fill-opacity="0.48936" fill-rule="evenodd" id="imagebot_81"/>
   <path fill="#fff" transform="matrix(2.67569, -2.21224, 2.21224, 2.67569, -4286.51, 5144.03)" fill-rule="evenodd" fill-opacity="0.92021" d="M1912.19995,-248.89999A4.1037,5.3664 0 1 1 1903.99245,-248.89999A4.1037,5.3664 0 1 1 1912.19995,-248.89999z" id="imagebot_80"/>
   <path fill="#fff" transform="matrix(1.57608, -1.30304, 1.30304, 1.57608, -2414.91, 3165.1)" fill-rule="evenodd" fill-opacity="0.92021" d="M1912.19995,-248.89999A4.1037,5.3664 0 1 1 1903.99245,-248.89999A4.1037,5.3664 0 1 1 1912.19995,-248.89999z" id="imagebot_79"/>
   <path id="imagebot_78" d="M272.313,199.762 C261.432,193.275 249.769,192.873 246.261,198.755 L239.414,210.184 C235.904,216.064 241.861,226.043 252.742,232.531 C263.624,239.019 275.325,239.57 278.832,233.687 L285.679,222.258 C289.189,216.378 283.195,206.25 272.314,199.762 L272.313,199.762 z" fill="none" stroke-width="4.5553" stroke="#000"/>
   <path transform="matrix(0.769983, 0, 0, 0.769983, -100.113, -3.38223)" fill="#ccab7f" stroke-width="4.5553" stroke="#000" fill-rule="evenodd" d="M513.1,259.12 C502.621,261.578 493.154,267.795 484.36,282.696 L483.685,283.594 C481.707,285.516 476.858,285.093 472.458,282.471 C467.977,279.8 465.487,275.906 466.396,273.266 C466.647,272.837 467.294,271.694 467.294,271.694 C478.363,253.332 493.129,242.993 508.608,239.361 C514.589,237.958 520.5,237.391 526.346,237.565 C526.489,237.569 526.64,237.559 526.727,237.567 L532.991,235.876 L533.552,240.439 L538.745,241.47 L533.728,247.984 L537.863,254.005 L533.868,256.482 L532.745,261.41 L526.108,258.296 C521.625,258.047 517.209,258.155 513.097,259.12 L513.1,259.12 z" id="imagebot_77"/>
   <path transform="matrix(0.769983, 0, 0, 0.769983, -100.113, -3.38223)" fill="none" stroke-width="2.2811" stroke-linecap="round" stroke="#000" stroke-opacity="0.68617" d="M475.41,261.17999C475.12979,273.52899 480.8541,280.64899 484.3913,281.38799" id="imagebot_76"/>
   <path transform="matrix(0.769983, 0, 0, 0.769983, -100.113, -3.38223)" fill="none" stroke-width="2.2811" stroke-linecap="round" stroke="#000" stroke-opacity="0.68617" d="M486.06,251.84C484.1818,264.048 488.9347,271.851 492.3469,273.042" id="imagebot_75"/>
   <path transform="matrix(0.769983, 0, 0, 0.769983, -100.113, -3.38223)" fill="none" stroke-width="2.2811" stroke-linecap="round" stroke="#000" stroke-opacity="0.68617" d="M498.35999,243.31C494.16099,254.926 497.31889,263.499 500.43719,265.326" id="imagebot_74"/>
   <path transform="matrix(0.769983, 0, 0, 0.769983, -100.113, -3.38223)" fill="none" stroke-width="2.2811" stroke-linecap="round" stroke="#000" stroke-opacity="0.68617" d="M511.76999,238.56C505.46869,249.184 506.96459,258.197 509.68199,260.575" id="imagebot_73"/>
   <path transform="matrix(0.769983, 0, 0, 0.769983, -100.113, -3.38223)" d="M533.08,235.77 L527.017,237.566 A1.1407,1.1407 0 0,0 527.017,237.342 A1.1407,1.1407 0 0,0 527.017,237.118 A1.1407,1.1407 0 0,0 527.017,236.894 A1.1407,1.1407 0 0,0 526.794,236.67 A1.1407,1.1407 0 0,0 526.572,236.445 A1.1407,1.1407 0 0,0 526.349,236.221 A1.1407,1.1407 0 0,0 526.126,236.221 A1.1407,1.1407 0 0,0 525.904,236.221 A1.1407,1.1407 0 0,0 525.681,236.221 A1.1407,1.1407 0 0,0 525.458,236.445 A1.1407,1.1407 0 0,0 525.235,236.445 A1.1407,1.1407 0 0,0 525.013,236.67 C524.747,236.966 524.589,237.272 524.337,237.568 C523.142,237.618 521.955,237.729 520.745,237.792 L521.42,239.588 C520.436,239.676 519.779,240.066 518.95,240.486 C515.669,242.152 519.546,241.709 520.073,242.732 C520.173,242.877 517.471,243.791 517.378,244.079 C517.091,244.95 518.29,246.651 518.054,247.447 C517.752,248.387 515.841,248.682 515.584,249.468 C515.326,250.268 516.479,251.275 517.606,252.162 C517.218,255.257 517.505,257.762 518.728,259.347 A1.1407,1.1407 0 0,0 518.951,259.571 A1.1407,1.1407 0 0,0 519.173,259.571 A1.1407,1.1407 0 0,0 519.396,259.796 A1.1407,1.1407 0 0,0 519.619,259.796 A1.1407,1.1407 0 0,0 519.842,259.796 A1.1407,1.1407 0 0,0 520.064,259.571 A1.1407,1.1407 0 0,0 520.287,259.571 A1.1407,1.1407 0 0,0 520.51,259.347 A1.1407,1.1407 0 0,0 520.732,259.123 A1.1407,1.1407 0 0,0 520.732,258.899 A1.1407,1.1407 0 0,0 520.732,258.675 A1.1407,1.1407 0 0,0 520.732,258.45 A1.1407,1.1407 0 0,0 520.732,258.226 A1.1407,1.1407 0 0,0 520.51,258.002 C520.222,257.631 519.985,256.871 519.834,255.981 C520.402,256.174 522.188,256.877 522.305,257.104 C522.52,257.526 522.772,257.818 522.98,258.227 C524.015,258.241 525.078,258.169 526.123,258.227 L532.859,261.37 L533.982,256.431 L537.798,253.961 L533.758,247.898 L538.696,241.387 L533.533,240.489 L533.087,235.773 L533.08,235.77 z" fill-opacity="0.68627" id="imagebot_72"/>
   <g fill-rule="evenodd" transform="rotate(21.6351, 319.278, 189.197) matrix(0.240592, 0.228023, -0.221994, 0.236896, -86.7127, 311.9)" id="imagebot_4">
    <path d="M718.8,-1014.3 L658.905,-1078.99 L665.674,-1033.89 L633.828,-1094.88 L615.535,-1043.33 L613.306,-1097.37 L521.907,-978.172 L582.043,-1096.69 L517.323,-1079.17 L579.863,-1129.01 L534.881,-1138.95 L580.126,-1149.61 L482.7,-1193.54 L587.49,-1170.11 L555.129,-1209.4 L596.591,-1192.07 L592.025,-1240.76 L622.668,-1192.26 L640.558,-1290.96 L646.316,-1192.28 L682.654,-1231.39 L678.656,-1201.97 L729.388,-1232.01 L675.836,-1160.65 L755.127,-1161.95 L697.573,-1136.05 L798.503,-1075.31 L669.013,-1117.04 L718.8,-1014.3 z" fill="#a00" stroke-width="3" stroke="#800000" id="imagebot_9"/>
    <path d="M641.12,-1257.8 L627.558,-1191.24 A5.0051,5.0051 0 0,1 618.433,-1189.55 L598.933,-1220.42 L601.558,-1192.52 A5.0051,5.0051 0 0,1 594.37,-1187.58 L565.87,-1201.8 L591.214,-1173.43 A5.0051,5.0051 0 0,1 586.402,-1165.21 L516.027,-1180.77 L581.996,-1154.24 A5.0051,5.0051 0 0,1 581.465,-1144.77 L551.934,-1136.55 L580.34,-1133.96 A5.0051,5.0051 0 0,1 582.996,-1125.08 L539.371,-1090.33 L580.715,-1101.52 A5.0051,5.0051 0 0,1 586.496,-1094.43 L550.777,-1024.02 L609.339,-1100.39 A5.0051,5.0051 0 0,1 618.308,-1097.58 L619.464,-1069.36 L629.12,-1096.55 A5.0051,5.0051 0 0,1 638.277,-1097.18 L656.308,-1062.64 L653.964,-1078.24 A5.0051,5.0051 0 0,1 662.558,-1082.4 L699.652,-1042.33 L664.496,-1114.83 A5.0051,5.0051 0 0,1 670.058,-1121.9 L761.589,-1102.02 L695.527,-1131.49 A5.0051,5.0051 0 0,1 695.496,-1140.61 L730.902,-1156.52 L675.933,-1155.61 A5.0051,5.0051 0 0,1 671.964,-1163.8 L725.526,-1229.08 L681.557,-1197.86 A5.0051,5.0051 0 0,1 673.682,-1202.65 L675.557,-1216.4 L649.963,-1188.86 A5.0051,5.0051 0 0,1 641.307,-1192.27 L641.119,-1257.8 L641.12,-1257.8 z" fill="#e44f30" filter="url(#imagebot_6)" id="imagebot_8"/>
    <path d="M637.72,-1223.6 L631.001,-1190.6 A8.5144,8.5144 0 0,1 615.47,-1187.76 L603.814,-1206.23 L605.064,-1192.88 A8.5144,8.5144 0 0,1 592.783,-1184.47 L580.752,-1190.47 L593.846,-1175.82 A8.5144,8.5144 0 0,1 585.659,-1161.82 L556.815,-1168.19 L583.315,-1157.54 A8.5144,8.5144 0 0,1 582.408,-1141.44 L571.314,-1138.35 L580.658,-1137.51 A8.5144,8.5144 0 0,1 585.189,-1122.38 L554.783,-1098.16 L579.814,-1104.94 A8.5144,8.5144 0 0,1 589.627,-1092.88 L571.096,-1056.32 L606.565,-1102.6 A8.5144,8.5144 0 0,1 621.815,-1097.76 L622.221,-1087.66 L625.815,-1097.76 A8.5144,8.5144 0 0,1 641.377,-1098.85 L650.658,-1081.1 A8.5144,8.5144 0 0,1 665.158,-1084.82 L686.189,-1062.1 L661.345,-1113.35 A8.5144,8.5144 0 0,1 670.814,-1125.38 L729.033,-1112.73 L694.095,-1128.32 A8.5144,8.5144 0 0,1 694.064,-1143.85 L713.939,-1152.79 L676.001,-1152.16 A8.5144,8.5144 0 0,1 669.251,-1166.07 L706.22,-1211.13 L683.595,-1195.07 A8.5144,8.5144 0 0,1 670.22,-1203.16 L670.595,-1205.94 L652.564,-1186.54 A8.5144,8.5144 0 0,1 637.814,-1192.29 L637.72,-1223.6 L637.72,-1223.6 z" fill="#fc0" filter="url(#imagebot_6)" id="imagebot_7"/>
    <path d="M667,-1190 L658.562,-1180.94 A16.742,16.742 0 0,1 634.5,-1180.5 A16.742,16.742 0 0,1 609.688,-1181.75 A16.742,16.742 0 0,1 602.907,-1176.62 A16.742,16.742 0 0,1 595.751,-1155.62 A16.742,16.742 0 0,1 593.157,-1139.22 A16.742,16.742 0 0,1 590.313,-1115.97 L586.438,-1112.88 A16.742,16.742 0 0,1 597.188,-1103.91 L600.032,-1107.63 A16.742,16.742 0 0,1 625.157,-1109.25 A16.742,16.742 0 0,1 648.688,-1102.69 L652.876,-1094.66 A16.742,16.742 0 0,1 660.782,-1095.69 L653.938,-1109.78 A16.742,16.742 0 0,1 672.563,-1133.44 L681.501,-1131.5 A16.742,16.742 0 0,1 682.844,-1144.06 L676.126,-1143.94 A16.742,16.742 0 0,1 662.907,-1171.31 L674.782,-1185.78 A16.742,16.742 0 0,1 666.982,-1189.88 L667,-1190 z" fill="#fc0" filter="url(#imagebot_6)" id="imagebot_5"/>
   </g>
  </g>
 </g>
 <metadata>image/svg+xmlOpenclipartBomb2013-09-08T00:06:33A bomb with a lit fusehttps://openclipart.org/detail/183207/bomb-by-sketchartist-183207SketchArtistbomb explosive weapon</metadata>
</svg>