<?xml version="1.0" encoding="UTF-8" standalone="no"?>
<svg id="svg2" xmlns:rdf="http://www.w3.org/1999/02/22-rdf-syntax-ns#" xmlns="http://www.w3.org/2000/svg" height="2304" width="2399.5" version="1.1" xmlns:cc="http://creativecommons.org/ns#" xmlns:dc="http://purl.org/dc/elements/1.1/">
<g id="g4147" transform="translate(-.26504)">
<path id="path4145" d="m336.02 1345.9c-184.43-526.94-335.52-959.07-335.75-960.29-0.3893-2.01 102.58-49.62 107.31-49.61 0.96168 0.001 743.15 1889.5 744.16 1894.5 0.3655 1.8202-174.51 73.476-179.32 73.476-0.59033 0-151.97-431.14-336.4-958.09z"/>
<path id="path4141" fill="#0096ff" d="m479.51 1092.4c-221.54-563.11-287.62-732.01-286.84-733.27 7.91-12.81 103.37-85.21 156.28-118.55 226.19-142.47 522.48-212.74 817.05-193.76l10.476 0.67518 237.44 534.25c130.59 293.84 237.59 534.1 237.77 533.92 0.1795-0.1795-52.581-196.04-117.25-435.25-64.665-239.21-117.8-436.29-118.09-437.96l-0.516-3.0317 17.345-3.7869c222.72-48.624 369.79-113.98 489.63-217.57 7.5438-6.5212 15.038-13.257 16.653-14.968 1.7-1.7002 3.5-3.1 4.1-3.1 1.0301 0 455.19 1145.4 456.25 1150.7 0.7419 3.6924-13.803 26.955-29.267 46.807-137.48 176.49-482.03 362.83-734.1 397-156.36 21.198-262.46-15.13-311.29-106.58-6.8919-12.907-7.3571-11.514 9.2052-27.574 83.584-81.054 212.39-148.52 266.24-139.44 49.089 8.2692 39.627 66.512-28.664 176.44l-6.9354 11.164 5.7665-6.1213c212.42-225.49 188.76-339.31-50.521-242.99-248.98 100.22-584.66 349.95-741.13 551.36-5.6613 7.2875-10.616 13.25-11.01 13.25-0.39424 0-130.25-329.23-288.57-731.62z"/>
</g>
</svg>
