<?xml version="1.0" encoding="UTF-8" standalone="no"?>
<!-- Created with Inkscape (http://www.inkscape.org/) -->
<svg xmlns:inkscape="http://www.inkscape.org/namespaces/inkscape" xmlns:rdf="http://www.w3.org/1999/02/22-rdf-syntax-ns#" xmlns="http://www.w3.org/2000/svg" xmlns:sodipodi="http://sodipodi.sourceforge.net/DTD/sodipodi-0.dtd" xmlns:ns1="http://sozi.baierouge.fr" xmlns:cc="http://creativecommons.org/ns#" xmlns:xlink="http://www.w3.org/1999/xlink" xmlns:dc="http://purl.org/dc/elements/1.1/" id="svg2" sodipodi:docname="number-3.svg" inkscape:export-filename="number-3.png" viewBox="0 0 450 450" inkscape:export-xdpi="90" version="1.1" inkscape:export-ydpi="90" inkscape:version="0.48.4 r9939">
  <defs id="defs4">
    <linearGradient id="linearGradient4049" y2="675.76" gradientUnits="userSpaceOnUse" x2="313.19" gradientTransform="matrix(1.0217 0 0 1.0217 -6.5536 -23.756)" y1="675.76" x1="135.44" inkscape:collect="always">
      <stop id="stop4045" style="stop-color:#ffffff" offset="0"/>
      <stop id="stop4047" style="stop-color:#ffffff;stop-opacity:0" offset="1"/>
    </linearGradient>
    <linearGradient id="linearGradient4057" y2="939.15" gradientUnits="userSpaceOnUse" x2="167" gradientTransform="translate(-1,-1)" y1="977.36" x1="167" inkscape:collect="always">
      <stop id="stop4053" style="stop-color:#ffdd55" offset="0"/>
      <stop id="stop4055" style="stop-color:#ffdd55;stop-opacity:0" offset="1"/>
    </linearGradient>
    <filter id="filter4063" inkscape:collect="always">
      <feGaussianBlur id="feGaussianBlur4065" stdDeviation="1.4992716" inkscape:collect="always"/>
    </filter>
    <linearGradient id="linearGradient4085" y2="229.18" gradientUnits="userSpaceOnUse" x2="253.82" gradientTransform="matrix(1.0217 0 0 1.0217 -8.5971 591.7)" y1="203" x1="280" inkscape:collect="always">
      <stop id="stop4081" style="stop-color:#eaff35" offset="0"/>
      <stop id="stop4083" style="stop-color:#ccff00;stop-opacity:0" offset="1"/>
    </linearGradient>
    <linearGradient id="linearGradient4093" y2="979.36" gradientUnits="userSpaceOnUse" x2="241" gradientTransform="matrix(1.0217 0 0 1.0217 -7.5754 -23.756)" y1="671.36" x1="240" inkscape:collect="always">
      <stop id="stop4089" style="stop-color:#ffd42a" offset="0"/>
      <stop id="stop4091" style="stop-color:#f1ab00" offset="1"/>
    </linearGradient>
    <filter id="filter4097" height="2.392" width="1.3258" y="-.696" x="-.16289" inkscape:collect="always">
      <feGaussianBlur id="feGaussianBlur4099" stdDeviation="6.38" inkscape:collect="always"/>
    </filter>
  </defs>
  <sodipodi:namedview id="base" bordercolor="#666666" inkscape:pageshadow="2" inkscape:window-y="-9" pagecolor="#ffffff" inkscape:window-height="963" inkscape:window-maximized="1" inkscape:zoom="1" inkscape:window-x="-9" showgrid="false" borderopacity="1.0" inkscape:current-layer="layer1" inkscape:cx="225" inkscape:cy="200.24072" inkscape:window-width="1280" inkscape:pageopacity="0.0" inkscape:document-units="px"/>
  <g id="layer1" inkscape:label="Layer 1" inkscape:groupmode="layer" transform="translate(0 -602.36)">
    <path id="path4007" style="stroke-linejoin:round;stroke:#000000;stroke-width:12.738;fill:#000000" inkscape:connector-curvature="0" d="m238.44 629.09c-2.2196 0.0172-4.4601 0.048-6.7352 0.12915-17.389 0.62105-34.111 3.0521-50.178 7.329-16.152 4.3001-31.642 10.789-46.38 19.469a6.3334 6.4061 0 0 0 -3.1282 5.3596l-1.3726 45.815a6.3334 6.4061 0 0 0 9.6399 5.6502c6.8761-4.2985 14.173-8.1776 21.897-11.591 7.8209-3.4555 15.565-6.456 23.238-9.0402 7.6537-2.5772 14.933-4.5803 21.801-6.0053 6.8808-1.4271 12.934-2.2034 18.131-2.3892 8.1237-0.28969 15.473 0.32309 22.025 1.7758 6.415 1.4228 11.681 3.7845 16.024 7.0385 4.2758 3.2041 7.5311 7.2939 9.9591 12.624 2.3135 5.08 3.5031 11.662 3.2559 19.889-0.22004 7.3101-1.9738 14.068-5.3626 20.567-3.3332 6.3918-8.2637 12.042-15.066 17.08-6.7551 5.0027-15.439 9.2536-26.111 12.559-10.526 3.261-23.093 5.1947-37.666 5.7147l-17.811 0.64573a6.3334 6.4061 0 0 0 -6.1287 6.199l-1.2768 43.199a6.3334 6.4061 0 0 0 6.5436 6.5865l28.058-1.0009c13.061-0.46603 24.844 0.29948 35.336 2.2601 10.48 1.9587 19.291 5.0514 26.494 9.1694 7.1618 4.0949 12.305 9.0265 15.864 14.884 3.4836 5.7332 5.159 12.376 4.9157 20.47-0.50746 16.866-6.035 29.46-16.886 39.357-10.55 9.6228-27.589 15.407-51.838 16.272-6.0023 0.21429-12.575-0.15671-19.727-1.1623-7.1867-1.0104-14.541-2.5248-22.025-4.5524-7.4621-2.0216-14.918-4.5689-22.376-7.6196-7.4224-3.0359-14.309-6.4656-20.716-10.267a6.3334 6.4061 0 0 0 -9.5441 5.3273l-1.4683 48.204a6.3334 6.4061 0 0 0 3.4793 5.9084c12.713 6.5639 27.041 11.192 42.965 13.98 15.863 2.7779 32.675 3.8291 50.402 3.1964 19.995-0.71374 38.462-3.846 55.318-9.46 16.804-5.597 31.494-13.245 43.986-23.02 12.512-9.7918 22.422-21.569 29.558-35.16 7.1756-13.668 11.032-28.806 11.523-45.137 0.31689-10.546-1.5887-20.65-5.7137-29.994-4.1116-9.3121-10.232-17.574-18.131-24.699-7.8774-7.1044-17.289-12.961-28.122-17.564-5.0889-2.1622-10.47-3.9704-16.088-5.4887 3.7257-1.9338 7.4626-3.88 10.981-6.1022 9.2722-5.857 17.367-12.59 24.227-20.211 6.8724-7.6346 12.4-16.121 16.535-25.377 4.2054-9.4168 6.4793-19.535 6.799-30.156 0.43552-14.489-1.8659-27.672-7.0544-39.293-5.1569-11.548-12.903-21.389-22.983-29.284-10.112-7.919-22.45-13.683-36.836-17.402-10.824-2.7976-22.712-4.3317-35.655-4.6493-2.1572-0.0529-4.3559-0.0494-6.5756-0.0323z"/>
    <path id="path4024" style="fill:#ffffff" inkscape:connector-curvature="0" d="m236.4 627.02c-2.2203 0.0171-4.4614 0.0476-6.7371 0.12809-17.394 0.61594-34.121 3.0269-50.193 7.2686-16.157 4.2646-31.651 10.7-46.393 19.308a6.3352 6.3532 0 0 0 -3.1291 5.3154l-1.373 45.437a6.3352 6.3532 0 0 0 9.6427 5.6035c6.8781-4.2631 14.177-8.1102 21.904-11.495 7.8232-3.427 15.569-6.4028 23.245-8.9657 7.656-2.5559 14.938-4.5425 21.808-5.9558 6.8828-1.4153 12.937-2.1852 18.136-2.3695 8.126-0.28729 15.477 0.32044 22.031 1.7611 6.4169 1.4111 11.684 3.7533 16.029 6.9804 4.2771 3.1777 7.5333 7.2338 9.962 12.52 2.3142 5.0381 3.5041 11.566 3.2568 19.724-0.2201 7.2498-1.9744 13.952-5.3642 20.397-3.3341 6.3391-8.2661 11.943-15.071 16.939-6.7571 4.9615-15.443 9.1773-26.118 12.456-10.529 3.2341-23.099 5.1519-37.677 5.6676l-17.817 0.6404a6.3352 6.3532 0 0 0 -6.1304 6.1479l-1.2772 42.843a6.3352 6.3532 0 0 0 6.5455 6.5321l28.066-0.99263c13.064-0.46219 24.851 0.29702 35.346 2.2414 10.483 1.9426 19.296 5.0097 26.501 9.0937 7.1639 4.0611 12.308 8.952 15.869 14.761 3.4846 5.6859 5.1605 12.274 4.9171 20.301-0.5076 16.727-6.0367 29.217-16.891 39.033-10.553 9.5434-27.597 15.28-51.853 16.138-6.004 0.21252-12.578-0.15541-19.732-1.1527-7.1888-1.0021-14.545-2.504-22.031-4.5148-7.4642-2.0049-14.922-4.5312-22.383-7.5568-7.4246-3.0109-14.313-6.4123-20.722-10.182a6.3352 6.3532 0 0 0 -9.5469 5.2833l-1.4688 47.806a6.3352 6.3532 0 0 0 3.4803 5.8597c12.717 6.5098 27.049 11.099 42.977 13.865 15.868 2.755 32.684 3.7976 50.417 3.17 20.001-0.70786 38.474-3.8142 55.334-9.3819 16.809-5.5508 31.503-13.136 43.999-22.83 12.516-9.711 22.429-21.391 29.567-34.87 7.1777-13.555 11.035-28.568 11.527-44.764 0.31698-10.459-1.5892-20.48-5.7154-29.747-4.1127-9.2352-10.235-17.429-18.136-24.495-7.8796-7.0458-17.294-12.854-28.13-17.419-5.0903-2.1444-10.473-3.9377-16.092-5.4434 3.7268-1.9179 7.4648-3.848 10.984-6.0518 9.2749-5.8087 17.372-12.486 24.234-20.045 6.8744-7.5716 12.404-15.988 16.539-25.168 4.2067-9.3391 6.4812-19.374 6.801-29.907 0.43564-14.37-1.8664-27.444-7.0564-38.969-5.1584-11.452-12.907-21.213-22.989-29.042-10.115-7.8536-22.457-13.57-36.847-17.259-10.827-2.7745-22.718-4.296-35.665-4.6109-2.1578-0.0524-4.3572-0.0489-6.5775-0.032z"/>
    <path id="path4022" style="fill:url(#linearGradient4093)" inkscape:connector-curvature="0" d="m239.46 632.12c-2.2203 0.017-4.4614 0.0474-6.7371 0.12735-17.394 0.61244-34.121 3.0097-50.193 7.2274-16.157 4.2405-31.651 10.639-46.393 19.199a6.3352 6.3172 0 0 0 -3.1291 5.2852l-1.373 45.179a6.3352 6.3172 0 0 0 9.6427 5.5718c6.8781-4.2389 14.177-8.0642 21.904-11.43 7.8232-3.4076 15.569-6.3664 23.245-8.9148 7.656-2.5414 14.938-4.5167 21.808-5.922 6.8828-1.4073 12.937-2.1728 18.136-2.356 8.126-0.28567 15.477 0.31862 22.031 1.7511 6.4169 1.4031 11.684 3.732 16.029 6.9408 4.2771 3.1596 7.5333 7.1928 9.962 12.449 2.3142 5.0096 3.5041 11.501 3.2568 19.613-0.22009 7.2086-1.9744 13.873-5.3641 20.281-3.3341 6.3031-8.2661 11.875-15.071 16.843-6.7571 4.9333-15.443 9.1252-26.118 12.385-10.529 3.2158-23.099 5.1226-37.677 5.6354l-17.817 0.63678a6.3352 6.3172 0 0 0 -6.1304 6.113l-1.2772 42.6a6.3352 6.3172 0 0 0 6.5455 6.4951l28.066-0.98699c13.064-0.45958 24.851 0.29533 35.346 2.2287 10.483 1.9316 19.296 4.9813 26.501 9.0422 7.1639 4.038 12.308 8.9012 15.869 14.678 3.4846 5.6537 5.1605 12.204 4.9171 20.186-0.5076 16.632-6.0367 29.051-16.891 38.811-10.553 9.4892-27.597 15.193-51.853 16.047-6.004 0.21132-12.578-0.15452-19.732-1.1462-7.1888-0.99637-14.545-2.4898-22.031-4.4892-7.4642-1.9936-14.922-4.5055-22.383-7.5139-7.4246-2.9938-14.313-6.3759-20.722-10.125a6.3352 6.3172 0 0 0 -9.5469 5.2534l-1.4688 47.535a6.3352 6.3172 0 0 0 3.4803 5.8265c12.717 6.4728 27.049 11.036 42.977 13.786 15.868 2.7394 32.684 3.776 50.417 3.152 20.001-0.70382 38.474-3.7926 55.334-9.3287 16.809-5.5193 31.503-13.061 43.999-22.701 12.516-9.6559 22.429-21.27 29.567-34.672 7.1777-13.478 11.035-28.406 11.527-44.51 0.31699-10.4-1.5891-20.364-5.7154-29.578-4.1128-9.1829-10.235-17.33-18.136-24.357-7.8796-7.0059-17.294-12.781-28.13-17.32-5.0904-2.1322-10.473-3.9154-16.092-5.4126 3.7268-1.907 7.4648-3.8261 10.984-6.0175 9.2749-5.7757 17.372-12.415 24.234-19.931 6.8744-7.5287 12.404-15.897 16.539-25.025 4.2067-9.2861 6.4812-19.264 6.801-29.737 0.43564-14.288-1.8664-27.288-7.0564-38.748-5.1584-11.388-12.907-21.093-22.989-28.878-10.115-7.8091-22.457-13.493-36.847-17.161-10.827-2.7588-22.718-4.2716-35.665-4.5848-2.1578-0.0522-4.3572-0.0487-6.5775-0.0318z"/>
    <path id="path4041" style="fill:url(#linearGradient4049)" inkscape:connector-curvature="0" d="m239.46 631.1c-2.2203 0.017-4.4614 0.0478-6.7371 0.12772-17.394 0.61244-34.121 2.9984-50.193 7.216-16.157 4.2405-31.651 10.662-46.393 19.222a6.3352 6.3172 0 0 0 -3.1291 5.2684l-1.1814 39.369c41.865-32.837 101.46-53.386 167.63-53.386 4.6944 0 9.3606 0.11557 13.985 0.31929-9.0761-5.968-19.681-10.433-31.738-13.506-10.827-2.7588-22.718-4.2847-35.665-4.5978-2.1578-0.0522-4.3572-0.0488-6.5775-0.0319z"/>
    <path id="path4034" style="filter:url(#filter4063);fill:url(#linearGradient4057)" inkscape:connector-curvature="0" d="m126.92 927.67-1.2628 41.209a6.1109 6.0935 0 0 0 3.3571 5.6362c12.267 6.2436 26.091 10.622 41.455 13.274 15.306 2.6424 31.527 3.651 48.632 3.0491 15.313-0.53886 29.704-2.5383 43.119-6.0058-54.247-6.4593-101.89-27.365-135.3-57.163z" transform="matrix(1.0217 0 0 1.0217 -6.5536 -23.756)"/>
    <path id="path4072" style="opacity:0.66;fill:url(#linearGradient4085)" inkscape:connector-curvature="0" d="m344.1 742.47c-22.798 30-69 50.512-122.29 50.512-18.631 0-36.386-2.5113-52.588-7.0564a6.3352 6.3172 0 0 0 -0.76631 2.8098l-0.95788 32.185c13.255-2.8797 27.382-4.4382 42.051-4.4382 75.897 0 137.42 41.628 137.42 92.978 0 4.9141-0.57474 9.724-1.6603 14.432 0.0859-0.15935 0.1703-0.31907 0.25544-0.47894 7.1777-13.478 11.035-28.405 11.527-44.51 0.31699-10.4-1.5891-20.352-5.7154-29.567-4.1127-9.1829-10.235-17.336-18.136-24.362-7.8796-7.0059-17.294-12.798-28.13-17.338-5.0904-2.1322-10.473-3.8989-16.092-5.3961 3.7268-1.907 7.4648-3.8433 10.984-6.0347 9.2749-5.7757 17.372-12.408 24.234-19.924 6.8744-7.5287 12.404-15.904 16.539-25.033 1.2965-2.862 2.3919-5.793 3.3207-8.7806z"/>
    <path id="path4095" sodipodi:rx="47" sodipodi:ry="11" style="opacity:0.44;color:#000000;filter:url(#filter4097);fill:#fed026" sodipodi:type="arc" d="m275 428a47 11 0 1 1 -94 0 47 11 0 1 1 94 0z" transform="translate(6 602.36)" sodipodi:cy="428" sodipodi:cx="228"/>
  </g>
  <metadata>
    <rdf:RDF>
      <cc:Work>
        <dc:format>image/svg+xml</dc:format>
        <dc:type rdf:resource="http://purl.org/dc/dcmitype/StillImage"/>
        <cc:license rdf:resource="http://creativecommons.org/licenses/publicdomain/"/>
        <dc:publisher>
          <cc:Agent rdf:about="http://openclipart.org/">
            <dc:title>Openclipart</dc:title>
          </cc:Agent>
        </dc:publisher>
      </cc:Work>
      <cc:License rdf:about="http://creativecommons.org/licenses/publicdomain/">
        <cc:permits rdf:resource="http://creativecommons.org/ns#Reproduction"/>
        <cc:permits rdf:resource="http://creativecommons.org/ns#Distribution"/>
        <cc:permits rdf:resource="http://creativecommons.org/ns#DerivativeWorks"/>
      </cc:License>
    </rdf:RDF>
  </metadata>
</svg>
