<?xml version="1.0" encoding="UTF-8" standalone="no"?>
<!-- Created with Inkscape (http://www.inkscape.org/) -->
<svg xmlns:inkscape="http://www.inkscape.org/namespaces/inkscape" xmlns:rdf="http://www.w3.org/1999/02/22-rdf-syntax-ns#" xmlns="http://www.w3.org/2000/svg" xmlns:sodipodi="http://sodipodi.sourceforge.net/DTD/sodipodi-0.dtd" xmlns:ns1="http://sozi.baierouge.fr" xmlns:cc="http://creativecommons.org/ns#" xmlns:xlink="http://www.w3.org/1999/xlink" xmlns:dc="http://purl.org/dc/elements/1.1/" id="svg2" sodipodi:docname="number-6.svg" inkscape:export-filename="number-6.png" viewBox="0 0 450 450" inkscape:export-xdpi="90" version="1.1" inkscape:export-ydpi="90" inkscape:version="0.48.4 r9939">
  <defs id="defs4">
    <filter id="filter4097" height="2.392" width="1.3258" y="-.696" x="-.16289" inkscape:collect="always">
      <feGaussianBlur id="feGaussianBlur4099" stdDeviation="6.38" inkscape:collect="always"/>
    </filter>
    <filter id="filter4020" inkscape:collect="always">
      <feGaussianBlur id="feGaussianBlur4022" stdDeviation="1.9730453" inkscape:collect="always"/>
    </filter>
    <linearGradient id="linearGradient4045" y2="1042.2" gradientUnits="userSpaceOnUse" x2="184.27" y1="775.59" x1="218.63" inkscape:collect="always">
      <stop id="stop3984" style="stop-color:#00ff00" offset="0"/>
      <stop id="stop3986" style="stop-color:#00d500" offset="1"/>
    </linearGradient>
    <linearGradient id="linearGradient4047" y2="732.63" gradientUnits="userSpaceOnUse" x2="217" y1="641.36" x1="217" inkscape:collect="always">
      <stop id="stop4003" style="stop-color:#ffffff" offset="0"/>
      <stop id="stop4005" style="stop-color:#ffffff;stop-opacity:0" offset="1"/>
    </linearGradient>
    <linearGradient id="linearGradient4049" y2="301" gradientUnits="userSpaceOnUse" x2="254" y1="353" x1="253" inkscape:collect="always">
      <stop id="stop4014" style="stop-color:#00ff00" offset="0"/>
      <stop id="stop4016" style="stop-color:#00ff00;stop-opacity:0" offset="1"/>
    </linearGradient>
    <linearGradient id="linearGradient4051" y2="281" gradientUnits="userSpaceOnUse" x2="264" y1="151" x1="268" inkscape:collect="always">
      <stop id="stop4031" style="stop-color:#66ff00" offset="0"/>
      <stop id="stop4033" style="stop-color:#ddff55" offset="1"/>
    </linearGradient>
  </defs>
  <sodipodi:namedview id="base" bordercolor="#666666" inkscape:pageshadow="2" inkscape:window-y="-9" pagecolor="#ffffff" inkscape:window-height="963" inkscape:window-maximized="1" inkscape:zoom="1" inkscape:window-x="-9" showgrid="false" borderopacity="1.0" inkscape:current-layer="layer1" inkscape:cx="169.08333" inkscape:cy="200.24072" inkscape:window-width="1280" inkscape:pageopacity="0.0" inkscape:document-units="px"/>
  <g id="layer1" inkscape:label="Layer 1" inkscape:groupmode="layer" transform="translate(0 -602.36)">
    <path id="path4095" sodipodi:rx="47" sodipodi:ry="11" style="opacity:0.44;color:#000000;filter:url(#filter4097);fill:#66ff00" sodipodi:type="arc" d="m275 428c0 6.0751-21.043 11-47 11s-47-4.9249-47-11 21.043-11 47-11 47 4.9249 47 11z" transform="translate(6 602.36)" sodipodi:cy="428" sodipodi:cx="228"/>
    <g id="g4037" transform="matrix(1.0281 0 0 1.0281 -2.3302 -21.204)">
      <path id="path3968" style="stroke:#000000;stroke-width:10.523;fill:#000000" sodipodi:type="inkscape:offset" d="m214.31 755.56c-40.093 0.0003-72.164 16.445-91.75 47.812-19.033 30.481-28.375 67.101-28.375 109.12-0.000021 43.004 9.9198 78.293 30.625 104.62 20.668 26.285 49.831 40.062 84.344 40.062 30.35 0 56.651-10.402 76.531-30.719 19.66-20.093 29.937-45.02 29.938-72.781-0.00024-26.787-9.7277-50.773-28.344-69.969-18.714-19.296-42.944-29.375-70.406-29.375-18.357 0.0002-35.997 5.1197-52.219 14.969-5.8068 3.5256-11.109 7.7506-15.969 12.562 3.0607-21.976 8.5692-39.187 16.094-51.344 11.399-18.416 26.228-26.562 48.75-26.562 24.189 0.00022 38.072 9.9046 47.438 34.562a10.236 10.236 0 0 0 12.25 6.25l30.5-8.3125a10.236 10.236 0 0 0 6.9375 -13.344c-15.75-43.53-49.98-67.55-96.35-67.55zm-2.7812 146.62c15.289 0.00013 26.871 4.8892 37.062 15.531 10.296 10.752 15.062 22.662 15.062 37.75-0.00016 15.332-4.8618 27.426-15.406 38.312-10.348 10.683-22.795 15.781-39.688 15.781-16.883 0-29.245-5.1098-39.531-15.844-10.636-11.098-15.344-22.568-15.344-36.25-0.00005-14.907 5.3041-27.08 17.25-38.562 11.952-11.488 24.824-16.719 40.594-16.719z" inkscape:original="M 214.3125 765.8125 C 176.82699 765.81278 149.1347 780.13949 131.25 808.78125 C 113.3652 837.42348 104.43748 871.97897 104.4375 912.5 C 104.43748 953.94523 113.90303 986.72422 132.84375 1010.8125 C 151.78437 1034.9008 177.21436 1046.9375 209.15625 1046.9375 C 237.27016 1046.9375 260.35807 1037.7252 278.375 1019.3125 C 296.39154 1000.8998 305.37478 979.02981 305.375 953.6875 C 305.37478 929.2693 296.89812 908.33268 279.9375 890.84375 C 262.97649 873.35513 241.95311 864.59393 216.875 864.59375 C 200.37602 864.59393 184.75163 869.08729 169.96875 878.0625 C 155.1857 887.03804 143.77013 900.82693 135.71875 919.4375 C 136.90661 835.62349 162.84667 793.719 213.53125 793.71875 C 241.11719 793.719 260.10379 807.45238 270.53125 834.90625 L 301.03125 826.59375 C 286.38006 786.0728 257.47335 765.81278 214.3125 765.8125 z M 211.53125 891.9375 C 229.21788 891.93765 244.05466 898.152 256 910.625 C 267.94499 923.09826 273.90606 938.04606 273.90625 955.46875 C 273.90606 973.1556 267.80272 988.30117 255.59375 1000.9062 C 243.38443 1013.5114 227.70104 1019.8125 208.5625 1019.8125 C 189.42372 1019.8125 173.79932 1013.4837 161.65625 1000.8125 C 149.51302 988.14143 143.43744 973.7037 143.4375 957.46875 C 143.43744 939.91406 150.24862 924.59847 163.84375 911.53125 C 177.43872 898.4643 193.3164 891.93765 211.53125 891.9375 z " transform="matrix(1.1868 -.17337 .15670 1.0727 -163.02 -136.73)" inkscape:radius="10.23459"/>
      <path id="path3970" style="fill:#ffffff" sodipodi:type="inkscape:offset" d="m214.31 755.56c-40.093 0.0003-72.164 16.445-91.75 47.812-19.033 30.481-28.375 67.101-28.375 109.12-0.000021 43.004 9.9198 78.293 30.625 104.62 20.668 26.285 49.831 40.062 84.344 40.062 30.35 0 56.651-10.402 76.531-30.719 19.66-20.093 29.937-45.02 29.938-72.781-0.00024-26.787-9.7277-50.773-28.344-69.969-18.714-19.296-42.944-29.375-70.406-29.375-18.357 0.0002-35.997 5.1197-52.219 14.969-5.8068 3.5256-11.109 7.7506-15.969 12.562 3.0607-21.976 8.5692-39.187 16.094-51.344 11.399-18.416 26.228-26.562 48.75-26.562 24.189 0.00022 38.072 9.9046 47.438 34.562a10.236 10.236 0 0 0 12.25 6.25l30.5-8.3125a10.236 10.236 0 0 0 6.9375 -13.344c-15.75-43.53-49.98-67.55-96.35-67.55zm-2.7812 146.62c15.289 0.00013 26.871 4.8892 37.062 15.531 10.296 10.752 15.062 22.662 15.062 37.75-0.00016 15.332-4.8618 27.426-15.406 38.312-10.348 10.683-22.795 15.781-39.688 15.781-16.883 0-29.245-5.1098-39.531-15.844-10.636-11.098-15.344-22.568-15.344-36.25-0.00005-14.907 5.3041-27.08 17.25-38.562 11.952-11.488 24.824-16.719 40.594-16.719z" inkscape:original="M 214.3125 765.8125 C 176.82699 765.81278 149.1347 780.13949 131.25 808.78125 C 113.3652 837.42348 104.43748 871.97897 104.4375 912.5 C 104.43748 953.94523 113.90303 986.72422 132.84375 1010.8125 C 151.78437 1034.9008 177.21436 1046.9375 209.15625 1046.9375 C 237.27016 1046.9375 260.35807 1037.7252 278.375 1019.3125 C 296.39154 1000.8998 305.37478 979.02981 305.375 953.6875 C 305.37478 929.2693 296.89812 908.33268 279.9375 890.84375 C 262.97649 873.35513 241.95311 864.59393 216.875 864.59375 C 200.37602 864.59393 184.75163 869.08729 169.96875 878.0625 C 155.1857 887.03804 143.77013 900.82693 135.71875 919.4375 C 136.90661 835.62349 162.84667 793.719 213.53125 793.71875 C 241.11719 793.719 260.10379 807.45238 270.53125 834.90625 L 301.03125 826.59375 C 286.38006 786.0728 257.47335 765.81278 214.3125 765.8125 z M 211.53125 891.9375 C 229.21788 891.93765 244.05466 898.152 256 910.625 C 267.94499 923.09826 273.90606 938.04606 273.90625 955.46875 C 273.90606 973.1556 267.80272 988.30117 255.59375 1000.9062 C 243.38443 1013.5114 227.70104 1019.8125 208.5625 1019.8125 C 189.42372 1019.8125 173.79932 1013.4837 161.65625 1000.8125 C 149.51302 988.14143 143.43744 973.7037 143.4375 957.46875 C 143.43744 939.91406 150.24862 924.59847 163.84375 911.53125 C 177.43872 898.4643 193.3164 891.93765 211.53125 891.9375 z " transform="matrix(1.1868 -.17337 .15670 1.0727 -164.02 -139.73)" inkscape:radius="10.23459"/>
      <path id="path3972" style="fill:url(#linearGradient4045)" sodipodi:type="inkscape:offset" d="m214.31 755.56c-40.093 0.0003-72.164 16.445-91.75 47.812-19.033 30.481-28.375 67.101-28.375 109.12-0.000021 43.004 9.9198 78.293 30.625 104.62 20.668 26.285 49.831 40.062 84.344 40.062 30.35 0 56.651-10.402 76.531-30.719 19.66-20.093 29.937-45.02 29.938-72.781-0.00024-26.787-9.7277-50.773-28.344-69.969-18.714-19.296-42.944-29.375-70.406-29.375-18.357 0.0002-35.997 5.1197-52.219 14.969-5.8068 3.5256-11.109 7.7506-15.969 12.562 3.0607-21.976 8.5692-39.187 16.094-51.344 11.399-18.416 26.228-26.562 48.75-26.562 24.189 0.00022 38.072 9.9046 47.438 34.562a10.236 10.236 0 0 0 12.25 6.25l30.5-8.3125a10.236 10.236 0 0 0 6.9375 -13.344c-15.75-43.53-49.98-67.55-96.35-67.55zm-2.7812 146.62c15.289 0.00013 26.871 4.8892 37.062 15.531 10.296 10.752 15.062 22.662 15.062 37.75-0.00016 15.332-4.8618 27.426-15.406 38.312-10.348 10.683-22.795 15.781-39.688 15.781-16.883 0-29.245-5.1098-39.531-15.844-10.636-11.098-15.344-22.568-15.344-36.25-0.00005-14.907 5.3041-27.08 17.25-38.562 11.952-11.488 24.824-16.719 40.594-16.719z" inkscape:original="M 214.3125 765.8125 C 176.82699 765.81278 149.1347 780.13949 131.25 808.78125 C 113.3652 837.42348 104.43748 871.97897 104.4375 912.5 C 104.43748 953.94523 113.90303 986.72422 132.84375 1010.8125 C 151.78437 1034.9008 177.21436 1046.9375 209.15625 1046.9375 C 237.27016 1046.9375 260.35807 1037.7252 278.375 1019.3125 C 296.39154 1000.8998 305.37478 979.02981 305.375 953.6875 C 305.37478 929.2693 296.89812 908.33268 279.9375 890.84375 C 262.97649 873.35513 241.95311 864.59393 216.875 864.59375 C 200.37602 864.59393 184.75163 869.08729 169.96875 878.0625 C 155.1857 887.03804 143.77013 900.82693 135.71875 919.4375 C 136.90661 835.62349 162.84667 793.719 213.53125 793.71875 C 241.11719 793.719 260.10379 807.45238 270.53125 834.90625 L 301.03125 826.59375 C 286.38006 786.0728 257.47335 765.81278 214.3125 765.8125 z M 211.53125 891.9375 C 229.21788 891.93765 244.05466 898.152 256 910.625 C 267.94499 923.09826 273.90606 938.04606 273.90625 955.46875 C 273.90606 973.1556 267.80272 988.30117 255.59375 1000.9062 C 243.38443 1013.5114 227.70104 1019.8125 208.5625 1019.8125 C 189.42372 1019.8125 173.79932 1013.4837 161.65625 1000.8125 C 149.51302 988.14143 143.43744 973.7037 143.4375 957.46875 C 143.43744 939.91406 150.24862 924.59847 163.84375 911.53125 C 177.43872 898.4643 193.3164 891.93765 211.53125 891.9375 z " transform="matrix(1.1868 -.17337 .15670 1.0727 -160.02 -135.73)" inkscape:radius="10.23459"/>
      <path id="path3999" style="fill:url(#linearGradient4047)" inkscape:connector-curvature="0" d="m232.88 634.89c-6.5698 0.14197-13.33 0.73916-20.25 1.75-47.874 6.9937-83.557 30.324-102 67.594-3.3308 6.7312-6.2508 13.62-8.7188 20.688 30.778-34.723 84.033-59.403 144.59-62.562 27.118-1.4149 52.764 1.6511 75.594 8.2812-22.357-24.184-52.996-36.533-89.219-35.75z"/>
      <path id="path3990" d="m353.5 294.78c-38.39 27.86-104.23 46.22-179 46.22-5.5319 0-11.011-0.11499-16.438-0.3125 26.978 18.441 59.852 25.276 95.969 20 36.24-5.2938 65.996-21.105 86.531-46.5 5.0624-6.2605 9.3738-12.737 12.938-19.406z" style="filter:url(#filter4020);fill:url(#linearGradient4049)" inkscape:connector-curvature="0" transform="translate(0 602.36)"/>
      <path id="path4024" d="m263.12 95.438c6.6464 4.84 12.536 11.693 18 20.75a11.096 12.277 1.4257 0 0 15.5 4.5625l21.57-8.75c-14.14-10.06-33.1-15.85-55.07-16.562zm-94.938 24.125c-32.574 17.299-59.724 42.048-76.156 68.781 0.002 11.707 0.9149 23.745 2.7188 36.094 4.7315 32.39 14.689 59.853 30.125 81.875 22.707 7.2705 51.535 7.3621 82.969-1.3125-3.9959-1.69-7.8184-3.8052-11.531-6.4062-14.362-10.061-21.762-21.542-23.906-36.219-2.336-15.991 2.0588-29.987 14.438-44.375 12.385-14.395 26.846-22.235 45.562-24.969 18.146-2.6506 32.674 0.56983 46.438 10.219 13.905 9.7485 21.417 21.721 23.781 37.906 0.42327 2.8978 0.62629 5.6904 0.65625 8.4375 20.585-20.633 34.966-44.289 39.875-67.625-6.5314-8.1338-14.48-15.463-23.75-21.875-25.235-17.455-55.563-24.073-88.156-19.312-21.787 3.1828-41.915 11.747-59.625 25.125-6.3393 4.7887-11.956 10.214-16.969 16.219 0.18891-24.105 4.0057-43.498 11.031-57.844 0.79822-1.6299 1.6359-3.2049 2.5-4.7188z" style="opacity:.6;color:#000000;fill:url(#linearGradient4051)" inkscape:connector-curvature="0" transform="translate(0 602.36)"/>
    </g>
  </g>
  <metadata>
    <rdf:RDF>
      <cc:Work>
        <dc:format>image/svg+xml</dc:format>
        <dc:type rdf:resource="http://purl.org/dc/dcmitype/StillImage"/>
        <cc:license rdf:resource="http://creativecommons.org/licenses/publicdomain/"/>
        <dc:publisher>
          <cc:Agent rdf:about="http://openclipart.org/">
            <dc:title>Openclipart</dc:title>
          </cc:Agent>
        </dc:publisher>
      </cc:Work>
      <cc:License rdf:about="http://creativecommons.org/licenses/publicdomain/">
        <cc:permits rdf:resource="http://creativecommons.org/ns#Reproduction"/>
        <cc:permits rdf:resource="http://creativecommons.org/ns#Distribution"/>
        <cc:permits rdf:resource="http://creativecommons.org/ns#DerivativeWorks"/>
      </cc:License>
    </rdf:RDF>
  </metadata>
</svg>
